# xmcd
#
# Track frame offsets: 
#        150
#        14621
#        32768
#        48738
#        63391
#        78968
#        96738
#        111573
#        128368
#        143164
#        158046
#        174546
#        188883
#        207099
#        226434
#        238885
#        255018
#
# Disc length: 3596 seconds
#
# Revision: 0
# Processed by: cddbd v1.5.2PL0 Copyright (c) Steve Scherf et al.
# Submitted via: ExactAudioCopyFreeDBPlugin 1.0
#
DISCID=ea0e0a11
DTITLE=Rednex - Greatest Hits and Remixes (1 of 2)
DYEAR=2019
DGENRE=Techno
TTITLE0=Cotton Eye Joe (Radio Edit)
TTITLE1=The Spirit Of The Hawk (F.A.F Radio Mix)
TTITLE2=Old Pop In An Oak (Radio Edit)
TTITLE3=Hold Me For A While (Radio Edit)
TTITLE4=Riding Alone (Radio Edit)
TTITLE5=Wish You Were Here (Radio Edit)
TTITLE6=Hittin' The Hay (Radio Edit)
TTITLE7=The Way I Mate (Radio Edit)
TTITLE8=Racing
TTITLE9=Inmit For The Money
TTITLE10=Wild 'n Free (Radio Edit)
TTITLE11=The Chase (Single Edit)
TTITLE12=Devil's On The Louse (Radio Edit)
TTITLE13=Rolling Home (Radio Edit)
TTITLE14=The End (Radio Edit)
TTITLE15=Manly Man (Single Version)
TTITLE16=Hold Me For A While (Valentine Version) (Unplugged)
EXTD=
EXTT0=
EXTT1=
EXTT2=
EXTT3=
EXTT4=
EXTT5=
EXTT6=
EXTT7=
EXTT8=
EXTT9=
EXTT10=
EXTT11=
EXTT12=
EXTT13=
EXTT14=
EXTT15=
EXTT16=
PLAYORDER=
